<svg xmlns="http://www.w3.org/2000/svg" xmlns:xlink="http://www.w3.org/1999/xlink" width="250" height="250" viewBox="0 0 250 250">
  <defs>
    <radialGradient id="radial-gradient" cx="0.5" cy="0.5" r="0.5" gradientUnits="objectBoundingBox">
      <stop offset="0" stop-color="#00109e"/>
      <stop offset="0.544" stop-color="#1c2682"/>
      <stop offset="1" stop-color="#00084f"/>
    </radialGradient>
  </defs>
  <g id="Gruppe_519" data-name="Gruppe 519" transform="translate(-120.877 -4070)">
    <g id="Ellipse_114" data-name="Ellipse 114" transform="translate(120.877 4070)" stroke="#707070" stroke-width="1" fill="url(#radial-gradient)">
      <circle cx="125" cy="125" r="125" stroke="none"/>
      <circle cx="125" cy="125" r="124.5" fill="none"/>
    </g>
    <g id="Vereinigungsmenge_101" data-name="Vereinigungsmenge 101" transform="translate(596.877 4167.87)" fill="#820707">
      <path d="M -367.8580017089844 72.63040924072266 L -419.4999084472656 72.63040924072266 L -433.4998168945313 72.63040924072266 L -433.4998168945313 -26.3695011138916 L -419.0003967285156 -26.3695011138916 L -370.0003967285156 -26.3695011138916 L -370.0003967285156 -12.36920547485352 L -419.0003967285156 -12.36920547485352 L -419.5003967285156 -12.36920547485352 L -419.5003967285156 -11.86920547485352 L -419.5003967285156 16.13070297241211 L -419.5003967285156 16.63070297241211 L -419.0003967285156 16.63070297241211 L -370.0003967285156 16.63070297241211 L -370.0003967285156 30.63009071350098 L -419.0003967285156 30.63009071350098 L -419.5003967285156 30.63009071350098 L -419.5003967285156 31.13009071350098 L -419.5003967285156 58.13011169433594 L -419.5003967285156 58.63011169433594 L -419.0003967285156 58.63011169433594 L -372.6900024414063 58.63011169433594 L -372.3399047851563 58.63011169433594 L -372.2201538085938 58.3011360168457 L -355.2326965332031 11.63029479980469 L -345.3921203613281 11.63029479980469 L -336.3048706054688 36.59581756591797 L -335.8349914550781 37.88668060302734 L -335.3651733398438 36.59579467773438 L -326.27880859375 11.63029479980469 L -316.5966186523438 11.63029479980469 L -301.0590515136719 54.32040786743164 L -300.5892028808594 55.6113166809082 L -300.1193542480469 54.32040786743164 L -272.9814758300781 -20.24011421203613 L -272.8104553222656 -20.7099552154541 L -273.2803039550781 -20.88095474243164 L -281.5213928222656 -23.88057327270508 L -264.2345581054688 -31.22721672058105 L -255.7146911621094 -14.48741912841797 L -263.8834838867188 -17.4607048034668 L -264.3533325195313 -17.63172912597656 L -264.5243530273438 -17.161865234375 L -294.658203125 65.63020324707031 L -306.5202026367188 65.63020324707031 L -320.9678649902344 25.93529510498047 L -321.4377136230469 24.64431762695313 L -321.9075622558594 25.93529510498047 L -330.1668395996094 48.63011169433594 L -341.5023193359375 48.63011169433594 L -349.8425598144531 25.7156810760498 L -350.3124084472656 24.42481803894043 L -350.7822570800781 25.7156810760498 L -367.8580017089844 72.63040924072266 Z" stroke="none"/>
      <path d="M -368.2080993652344 72.13040924072266 L -351.2520751953125 25.54468154907227 L -350.3124084472656 22.96293067932129 L -349.3727111816406 25.54468154907227 L -341.1522216796875 48.13011169433594 L -330.5169372558594 48.13011169433594 L -322.3774108886719 25.76431655883789 L -321.437744140625 23.18234062194824 L -320.4979858398438 25.76427268981934 L -306.1700744628906 65.13020324707031 L -295.00830078125 65.13020324707031 L -264.9941711425781 -17.33288764953613 L -264.6521606445313 -18.27259254455566 L -263.7124633789063 -17.93054580688477 L -256.7356567382813 -15.39111232757568 L -264.4684753417969 -30.58451271057129 L -280.1583862304688 -23.91654014587402 L -273.1092834472656 -21.35079574584961 L -272.1696166992188 -21.00877380371094 L -272.5116271972656 -20.069091796875 L -299.6495361328125 54.49143218994141 L -300.5892333984375 57.07324981689453 L -301.5289001464844 54.49143218994141 L -316.9467468261719 12.13029479980469 L -325.9286804199219 12.13029479980469 L -334.8953247070313 36.76679611206055 L -335.8349609375 39.34856796264648 L -336.7746887207031 36.76683807373047 L -345.7422180175781 12.13029479980469 L -354.8825988769531 12.13029479980469 L -371.7503051757813 58.47213363647461 L -371.9898071289063 59.13011169433594 L -372.6900024414063 59.13011169433594 L -419.0003967285156 59.13011169433594 L -420.0003967285156 59.13011169433594 L -420.0003967285156 58.13011169433594 L -420.0003967285156 31.13009071350098 L -420.0003967285156 30.13009071350098 L -419.0003967285156 30.13009071350098 L -370.5003967285156 30.13009071350098 L -370.5003967285156 17.13070297241211 L -419.0003967285156 17.13070297241211 L -420.0003967285156 17.13070297241211 L -420.0003967285156 16.13070297241211 L -420.0003967285156 -11.86920547485352 L -420.0003967285156 -12.86920547485352 L -419.0003967285156 -12.86920547485352 L -370.5003967285156 -12.86920547485352 L -370.5003967285156 -25.8695011138916 L -419.0003967285156 -25.8695011138916 L -432.9998168945313 -25.8695011138916 L -432.9998168945313 72.13040924072266 L -419.4999084472656 72.13040924072266 L -368.2080993652344 72.13040924072266 M -367.4996948242188 73.13040924072266 L -419.4999084472656 73.13040924072266 L -433.9998168945313 73.13040924072266 L -433.9998168945313 -26.8695011138916 L -419.0003967285156 -26.8695011138916 L -369.5003967285156 -26.8695011138916 L -369.5003967285156 -11.86920547485352 L -419.0003967285156 -11.86920547485352 L -419.0003967285156 16.13070297241211 L -369.5003967285156 16.13070297241211 L -369.5003967285156 31.13009071350098 L -419.0003967285156 31.13009071350098 L -419.0003967285156 58.13011169433594 L -372.6900024414063 58.13011169433594 L -355.5827941894531 11.13029479980469 L -345.0420227050781 11.13029479980469 L -335.8350219726563 36.4247932434082 L -326.62890625 11.13029479980469 L -316.2465209960938 11.13029479980469 L -300.5892028808594 54.14940643310547 L -273.4513244628906 -20.41111373901367 L -282.8843994140625 -23.84459114074707 L -264.0006103515625 -31.86990928649902 L -254.6937103271484 -13.58370590209961 L -264.0545043945313 -16.99086380004883 L -294.30810546875 66.13020324707031 L -306.8703002929688 66.13020324707031 L -321.4377136230469 26.10629463195801 L -329.8167114257813 49.13011169433594 L -341.8524169921875 49.13011169433594 L -350.3124084472656 25.88670349121094 L -367.4996948242188 73.10791015625 L -367.4996948242188 73.12950134277344 L -367.4996948242188 73.13040924072266 Z" stroke="none" fill="#fff"/>
    </g>
    <text id="Easy_Money" data-name="Easy Money" transform="translate(176.877 4277)" fill="#cfcfcf" font-size="25" font-family="SegoeUI-Bold, Segoe UI" font-weight="700"><tspan x="0" y="0">Easy Money</tspan></text>
    <g id="Vereinigungsmenge_103" data-name="Vereinigungsmenge 103" transform="translate(596.877 4167.87)" fill="#820707">
      <path d="M -367.8580017089844 72.63040924072266 L -419.4999084472656 72.63040924072266 L -433.4998168945313 72.63040924072266 L -433.4998168945313 -26.3695011138916 L -419.0003967285156 -26.3695011138916 L -370.0003967285156 -26.3695011138916 L -370.0003967285156 -12.36920547485352 L -419.0003967285156 -12.36920547485352 L -419.5003967285156 -12.36920547485352 L -419.5003967285156 -11.86920547485352 L -419.5003967285156 16.13070297241211 L -419.5003967285156 16.63070297241211 L -419.0003967285156 16.63070297241211 L -370.0003967285156 16.63070297241211 L -370.0003967285156 30.63009071350098 L -419.0003967285156 30.63009071350098 L -419.5003967285156 30.63009071350098 L -419.5003967285156 31.13009071350098 L -419.5003967285156 58.13011169433594 L -419.5003967285156 58.63011169433594 L -419.0003967285156 58.63011169433594 L -372.6900024414063 58.63011169433594 L -372.3399047851563 58.63011169433594 L -372.2201538085938 58.3011360168457 L -355.2326965332031 11.63029479980469 L -345.3921203613281 11.63029479980469 L -336.3048706054688 36.59581756591797 L -335.8349914550781 37.88668060302734 L -335.3651733398438 36.59579467773438 L -326.27880859375 11.63029479980469 L -316.5966186523438 11.63029479980469 L -301.0590515136719 54.32040786743164 L -300.5892028808594 55.6113166809082 L -300.1193542480469 54.32040786743164 L -272.9814758300781 -20.24011421203613 L -272.8104553222656 -20.7099552154541 L -273.2803039550781 -20.88095474243164 L -281.5213928222656 -23.88057327270508 L -264.2345581054688 -31.22721672058105 L -255.7146911621094 -14.48741912841797 L -263.8834838867188 -17.4607048034668 L -264.3533325195313 -17.63172912597656 L -264.5243530273438 -17.161865234375 L -294.658203125 65.63020324707031 L -306.5202026367188 65.63020324707031 L -320.9678649902344 25.93529510498047 L -321.4377136230469 24.64431762695313 L -321.9075622558594 25.93529510498047 L -330.1668395996094 48.63011169433594 L -341.5023193359375 48.63011169433594 L -349.8425598144531 25.7156810760498 L -350.3124084472656 24.42481803894043 L -350.7822570800781 25.7156810760498 L -367.8580017089844 72.63040924072266 Z" stroke="none"/>
      <path d="M -368.2080993652344 72.13040924072266 L -351.2520751953125 25.54468154907227 L -350.3124084472656 22.96293067932129 L -349.3727111816406 25.54468154907227 L -341.1522216796875 48.13011169433594 L -330.5169372558594 48.13011169433594 L -322.3774108886719 25.76431655883789 L -321.437744140625 23.18234062194824 L -320.4979858398438 25.76427268981934 L -306.1700744628906 65.13020324707031 L -295.00830078125 65.13020324707031 L -264.9941711425781 -17.33288764953613 L -264.6521606445313 -18.27259254455566 L -263.7124633789063 -17.93054580688477 L -256.7356567382813 -15.39111232757568 L -264.4684753417969 -30.58451271057129 L -280.1583862304688 -23.91654014587402 L -273.1092834472656 -21.35079574584961 L -272.1696166992188 -21.00877380371094 L -272.5116271972656 -20.069091796875 L -299.6495361328125 54.49143218994141 L -300.5892333984375 57.07324981689453 L -301.5289001464844 54.49143218994141 L -316.9467468261719 12.13029479980469 L -325.9286804199219 12.13029479980469 L -334.8953247070313 36.76679611206055 L -335.8349609375 39.34856796264648 L -336.7746887207031 36.76683807373047 L -345.7422180175781 12.13029479980469 L -354.8825988769531 12.13029479980469 L -371.7503051757813 58.47213363647461 L -371.9898071289063 59.13011169433594 L -372.6900024414063 59.13011169433594 L -419.0003967285156 59.13011169433594 L -420.0003967285156 59.13011169433594 L -420.0003967285156 58.13011169433594 L -420.0003967285156 31.13009071350098 L -420.0003967285156 30.13009071350098 L -419.0003967285156 30.13009071350098 L -370.5003967285156 30.13009071350098 L -370.5003967285156 17.13070297241211 L -419.0003967285156 17.13070297241211 L -420.0003967285156 17.13070297241211 L -420.0003967285156 16.13070297241211 L -420.0003967285156 -11.86920547485352 L -420.0003967285156 -12.86920547485352 L -419.0003967285156 -12.86920547485352 L -370.5003967285156 -12.86920547485352 L -370.5003967285156 -25.8695011138916 L -419.0003967285156 -25.8695011138916 L -432.9998168945313 -25.8695011138916 L -432.9998168945313 72.13040924072266 L -419.4999084472656 72.13040924072266 L -368.2080993652344 72.13040924072266 M -367.4996948242188 73.13040924072266 L -419.4999084472656 73.13040924072266 L -433.9998168945313 73.13040924072266 L -433.9998168945313 -26.8695011138916 L -419.0003967285156 -26.8695011138916 L -369.5003967285156 -26.8695011138916 L -369.5003967285156 -11.86920547485352 L -419.0003967285156 -11.86920547485352 L -419.0003967285156 16.13070297241211 L -369.5003967285156 16.13070297241211 L -369.5003967285156 31.13009071350098 L -419.0003967285156 31.13009071350098 L -419.0003967285156 58.13011169433594 L -372.6900024414063 58.13011169433594 L -355.5827941894531 11.13029479980469 L -345.0420227050781 11.13029479980469 L -335.8350219726563 36.4247932434082 L -326.62890625 11.13029479980469 L -316.2465209960938 11.13029479980469 L -300.5892028808594 54.14940643310547 L -273.4513244628906 -20.41111373901367 L -282.8843994140625 -23.84459114074707 L -264.0006103515625 -31.86990928649902 L -254.6937103271484 -13.58370590209961 L -264.0545043945313 -16.99086380004883 L -294.30810546875 66.13020324707031 L -306.8703002929688 66.13020324707031 L -321.4377136230469 26.10629463195801 L -329.8167114257813 49.13011169433594 L -341.8524169921875 49.13011169433594 L -350.3124084472656 25.88670349121094 L -367.4996948242188 73.10791015625 L -367.4996948242188 73.12950134277344 L -367.4996948242188 73.13040924072266 Z" stroke="none" fill="#fff"/>
    </g>
  </g>
</svg>
